<?xml version="1.0" encoding="UTF-8" standalone="no"?>
<svg
   height="31.937542"
   aria-hidden="true"
   viewBox="0 0 21.999998 21.95"
   version="1.1"
   width="32.010292"
   data-view-component="true"
   class="octicon octicon-mark-github v-align-middle"
   id="svg1"
   sodipodi:docname="myhub.svg"
   inkscape:version="1.4 (e7c3feb100, 2024-10-09)"
   inkscape:export-filename="myhub.png"
   inkscape:export-xdpi="1047.2727"
   inkscape:export-ydpi="1047.2727"
   xmlns:inkscape="http://www.inkscape.org/namespaces/inkscape"
   xmlns:sodipodi="http://sodipodi.sourceforge.net/DTD/sodipodi-0.dtd"
   xmlns="http://www.w3.org/2000/svg"
   xmlns:svg="http://www.w3.org/2000/svg">
  <defs
     id="defs1" />
  <sodipodi:namedview
     id="namedview1"
     pagecolor="#ffffff"
     bordercolor="#000000"
     borderopacity="0.25"
     inkscape:showpageshadow="2"
     inkscape:pageopacity="0.0"
     inkscape:pagecheckerboard="0"
     inkscape:deskcolor="#d1d1d1"
     inkscape:zoom="28.75"
     inkscape:cx="14.678261"
     inkscape:cy="11.895652"
     inkscape:window-width="1920"
     inkscape:window-height="1011"
     inkscape:window-x="0"
     inkscape:window-y="0"
     inkscape:window-maximized="1"
     inkscape:current-layer="svg1" />
  <circle
     style="display:inline;fill:#cf850c;fill-opacity:1;stroke-width:0.75"
     id="path2"
     cx="11.013043"
     cy="11"
     r="10.95" />
  <path
     d="M 11,0 C 4.9225,0 0,4.9225 0,11 c 0,4.8675 3.14875,8.9787 7.52125,10.4362 0.55,0.0963 0.75625,-0.2337 0.75625,-0.5225 0,-0.2612 -0.01375,-1.1275 -0.01375,-2.0487 C 5.5,19.3737 4.785,18.1912 4.565,17.5725 4.44125,17.2562 3.905,16.28 3.4375,16.0187 3.0525,15.8125 2.5025,15.3037 3.42375,15.29 4.29,15.2762 4.90875,16.0875 5.115,16.4175 6.105,18.0812 7.68625,17.6137 8.31875,17.325 8.415,16.61 8.70375,16.1287 9.02,15.8537 6.5725,15.5787 4.015,14.63 4.015,10.4225 c 0,-1.1963 0.42625,-2.18625 1.1275,-2.95625 -0.11,-0.275 -0.495,-1.4025 0.11,-2.915 0,0 0.92125,-0.28875 3.025,1.1275 0.88,-0.2475 1.815,-0.37125 2.75,-0.37125 0.935,0 1.87,0.12375 2.75,0.37125 2.1038,-1.43 3.025,-1.1275 3.025,-1.1275 0.605,1.5125 0.22,2.64 0.11,2.915 0.7013,0.77 1.1275,1.74625 1.1275,2.95625 0,4.2212 -2.5712,5.1562 -5.0187,5.4312 0.3987,0.3438 0.7425,1.0038 0.7425,2.035 0,1.4713 -0.0138,2.6538 -0.0138,3.025 0,0.2888 0.2063,0.6325 0.7563,0.5225 C 18.8513,19.9787 22,15.8537 22,11 22,4.9225 17.0775,0 11,0 Z"
     id="path1"
     style="fill:#33335c;fill-opacity:1" />
</svg>
